# xmcd
#
# Track frame offsets:
#	150
#	17625
#	37206
#	50069
#	68065
#	83733
#	98102
#	115330
#	128929
#	146072
#	161115
#	174164
#	191119
#	209260
#	229160
#	250870
#	268913
#	287054
#	306627
#	323312
#	341280
#
# Disc length: 4766 seconds
#
# Revision: 0
# Processed by: cddbd v1.5.1PL2 Copyright (c) Steve Scherf et al.
# Submitted via: EasyCDDAExtractor 9.0.0.1
#
DISCID=3a129c15
DTITLE=Various Artist - Classic Ballads
DYEAR=2000
DGENRE=Pop
TTITLE0=Toto Cutugno - L'Italiano
TTITLE1=Chris De Burgh - Lady In Red
TTITLE2=Joe Dassin - A Toi
TTITLE3=C.Norman and S.Quatro - Stumblin' In
TTITLE4=F.R.David - Words
TTITLE5=ABBA - Money
TTITLE6=Modern Talking - Chery, Chery Lady
TTITLE7=Baccara - Cara Mia
TTITLE8=Joy - Touch By Touch
TTITLE9=Secret Service - Ten O'clock Postman
TTITLE10=Mireille Mathieu - Ciao, Bambino, Sorry
TTITLE11=Savage - Only You
TTITLE12=Adriano Celentano - Soli
TTITLE13=Desirless - Voyage
TTITLE14=Ottawan - Hands Up
TTITLE15=Bad Boys Blue - You're A Woman
TTITLE16=Boney M - Sunny
TTITLE17=Sting - Englishman In New York
TTITLE18=Arabesque - Midnight Dancer
TTITLE19=Kim Wild - Cambodja
TTITLE20=Eruption - One Way Ticket
EXTD=
EXTT0=
EXTT1=
EXTT2=
EXTT3=
EXTT4=
EXTT5=
EXTT6=
EXTT7=
EXTT8=
EXTT9=
EXTT10=
EXTT11=
EXTT12=
EXTT13=
EXTT14=
EXTT15=
EXTT16=
EXTT17=
EXTT18=
EXTT19=
EXTT20=
PLAYORDER=
